<svg xmlns="http://www.w3.org/2000/svg" width="40" height="40" viewBox="0 0 40 40">
    <g fill="none" fill-rule="evenodd">
        <g>
            <g>
                <path fill="#FFF" d="M0 0H40V40H0z" opacity=".098" transform="translate(-221 -19) translate(221 19)"/>
                <g fill-rule="nonzero" stroke="#FFF" stroke-width=".7">
                    <path fill="#053C6D" d="M22.268 17.712c2.038-1.92 3.215-4.598 3.215-7.455C25.483 4.6 20.879 0 15.22 0S4.961 4.601 4.961 10.257c0 2.857 1.175 5.534 3.213 7.455-2.148 1.12-3.998 2.738-5.411 4.747C.955 25.027 0 28.051 0 31.201v2.704c0 .587.477 1.064 1.065 1.064h28.313c.588 0 1.065-.477 1.065-1.064V31.2c0-3.15-.956-6.174-2.763-8.742-1.414-2.01-3.263-3.627-5.412-4.747zm6.045 15.128H2.13v-1.639c0-5.408 3.4-10.328 8.46-12.242.374-.142.638-.482.68-.881.044-.398-.14-.787-.477-1.006-2.319-1.51-3.703-4.057-3.703-6.815 0-4.482 3.648-8.129 8.132-8.129s8.132 3.647 8.132 8.129c0 2.758-1.384 5.306-3.703 6.815-.335.219-.52.608-.477 1.006.043.399.306.74.681.88 5.06 1.915 8.46 6.835 8.46 12.243v1.64z" transform="translate(-221 -19) translate(221 19) translate(2 3)"/>
                    <path fill="#AE2E2D" d="M16.782 11.817c-.86.86-2.26.86-3.121 0-.416-.416-1.09-.416-1.506 0-.416.415-.416 1.089 0 1.505.845.845 1.956 1.267 3.066 1.267 1.11 0 2.221-.422 3.067-1.267.415-.416.415-1.09 0-1.505-.416-.416-1.09-.416-1.506 0h0zM34.935 10.915H33.13V9.111c0-.588-.476-1.064-1.064-1.064-.589 0-1.065.476-1.065 1.064v1.804h-1.805c-.588 0-1.065.477-1.065 1.064 0 .588.477 1.064 1.065 1.064H31v1.805c0 .587.476 1.064 1.065 1.064.588 0 1.064-.477 1.064-1.064v-1.805h1.805c.588 0 1.065-.476 1.065-1.064 0-.587-.477-1.064-1.065-1.064z" transform="translate(-221 -19) translate(221 19) translate(2 3)"/>
                </g>
            </g>
        </g>
    </g>
</svg>
