<svg xmlns="http://www.w3.org/2000/svg" xmlns:xlink="http://www.w3.org/1999/xlink" width="375" height="667" viewBox="0 0 375 667">
    <defs>
        <linearGradient id="nlpehu4k9b" x1="50%" x2="50%" y1="98.204%" y2="0%">
            <stop offset="0%" stop-color="#B02A30"/>
            <stop offset="100%" stop-color="#F5821F"/>
        </linearGradient>
        <linearGradient id="v0y6snxz3c" x1="50%" x2="50%" y1="98.204%" y2="0%">
            <stop offset="0%" stop-color="#B02A30"/>
            <stop offset="100%" stop-color="#F5821F"/>
        </linearGradient>
        <path id="w24vn0z6da" d="M0 0L466 0 466 668 0 668z"/>
    </defs>
    <g fill="none" fill-rule="evenodd">
        <g>
            <g transform="translate(-46)">
                <mask id="10zc5jpryd" fill="#fff">
                    <use xlink:href="#w24vn0z6da"/>
                </mask>
                <use fill="url(#nlpehu4k9b)" xlink:href="#w24vn0z6da"/>
                <path fill="url(#v0y6snxz3c)" fill-rule="nonzero" d="M5.078 718.72c-.3-3.294-38.7-57.838-21.768-110.865 4.643-14.538 30.33-79.887 30.33-79.887l112.038-192.39 1.202-3.258s5.79-9.983 5.038-11.569c-3.917-7.982-7.96-15.928-12.002-23.874-1.489-2.825-3.808-4.761-6.776-6.121-2.489-1.107-4.921-2.491-7.353-3.875-2.398-1.263-3.52-3.283-2.956-6.046.757-3.99 1.353-8.062 2.109-12.051 2.298-2.87 2.99-4.24 2.565-6.199-.956-4.279-1.5-8.545-2.456-12.823-.392-1.84-1.557-3.066-3.567-3.92-4.052-1.83-7.616-4.32-10.258-7.855-.652-.853-1.554-1.635-2.332-2.453-.423-.529-.72-1.094-1.213-1.863.913-.132 1.289-.24 1.95-.3-.526-.889-1.053-1.779-1.454-2.704-.699-1.49-.391-1.839 1.411-1.705l-.724-2.524c.856.144 1.552.205 2.373.23 3.812.988 6.827 2.985 9.717 5.018-.508-2.716-.395-3.269-.442-3.906.605.217 1.426.242 1.815.65 1.006 1.143 1.921 2.441 2.495 3.968 1.479 3.738 2.707 7.548 4.151 11.166 1.708 4.063 3.507 7.97 5.305 11.876.997 2.056 2.119 4.075 3.15 6.251.489-.66.921-1.045 1.41-1.705 7.666 11.59 14.153 21.436 20.55 31.438.95 1.419 1.864 2.717 2.905 3.98 1.463 1.792 2.5 1.624 4.072.003 4.197-.033 7.153.81 8.892 3.564 1.247 1.983 2.71 3.775 4.118 5.843 1.047-1.081 2.128-2.042 3.05-3.086-.14-1.911-.382-2.752-.783-3.678-1.41-3.498-1.44-7.391-1.083-10.876.324-3.604 2.45-7.076 5.512-9.645.433-.384 1.185-.6 1.846-.66 1.825-.262 3.65-.525 5.417-.512 6.25.029 11.04 4.899 10.904 11.051-1.597 5.791-2.75 10.284-5.789 13.887-.614.697-1.25 1.79-.097 2.5.993.625 1.824-.264 2.279-1.044.887-1.165 1.718-2.054 3.257-2.365 1.718-2.054 2.185-2.318 3.442-1.247 1.485 1.395 2.846 2.826 4.331 4.22.885-2.594.512-6.26.049-9.769-1.068-8.929-3.013-17.606-5.244-26.332-1.115-4.362-1.82-8.713-2.935-13.076-.908-3.641-2.228-7.295-3.261-10.901-.345-1.202-.53-2.32-.75-3.558-.287-1.478.28-2.811 1.522-3.688 2.266-1.56 2.376-3.543 1.972-5.898-.76-4.074-1.488-8.028-2.123-12.138-.185-1.118-.154-2.428.072-3.533.396-1.935-.234-3.185-1.776-4.303-.834-.542-1.702-1.203-2.41-1.78 1.445-1.586 3.535.026 6.171.7-1.328-2.74-2.691-5.6-4.02-8.342 2.52-.202 3.595 1.18 6.277 7.696.13-3.81-2.444-7.104-2.007-11.261 2.786 1.672 3.293 4.388 4.838 6.937-.153-2.428-.362-4.579-.412-6.646.833.542 1.45 1.275 1.532 2.032.874 3.522 1.748 7.043 2.372 10.637.438 2.475.055 4.927-.989 7.437-.568 1.334-.656 2.92-.618 4.47.097 2.704.444 5.336.952 8.052.391 1.838 1.159 3.57 1.801 5.336 1.652-.864 1.652-.864 2.295.903 2.525 7.86 5.016 15.601 7.667 23.426 1.698 4.976 3.521 9.916 5.47 14.82.47 1.166 1.282 2.104 2.094 3.042 2.72 2.862 4.682 3.08 8.237 1.28.844-.372 1.652-.864 2.837-1.464-.959-.505-1.69-.686-2.328-1.023-1.12-.59-1.36-1.43-.919-2.728.612-2.127 1.794-4.157 1.265-6.476 1.182-2.03 1.031-3.028.15-4.206-1.074-1.383-1.052-1.78.76-2.559.592-.3 1.06-.564 1.686-.744 1.094-.443 1.709-1.14 1.706-2.57-.053-3.497 3.079-5.826 6.502-5.246 5.009.905 9.723 2.675 14.017 5.346.833.54 1.61 1.359 1.852 2.2.805 3.281 1.45 6.478 1.88 9.867.128 1.394-.496 3.004-1.064 4.337-1.646 3.724-1.311 5.84 1.842 8.317 3.119 2.357 6.453 4.523 9.572 6.88 2.056 1.492 3.896 3.176 6.203 4.595-1.329-2.74-2.532-5.517-3.826-8.138-.436-1.045-.963-1.935-1.398-2.98-.539-1.407-.175-2.032 1.364-2.343 2.417-.563 2.758-.791 2.605-3.218-.284-5.252-.98-10.516-.979-15.719-.043-4.41.324-8.808.566-13.17.054-1.706-1.513-3.858-3.259-4.268-1.78-.53-2.858-3.342-1.996-5.54-1.683-3.03-4.457-4.186-6.127-6.699 3.09-.105 5.25 1.747 7.99 2.782-1.157-2.14-2.746-3.895-3.219-6.491 4.25 3.464 7.347 6.218 9.76 9.428 2.15 2.766 1.952 6.334 2.096 9.675.18 4.89.077 9.733.383 14.588.063 2.584.66 5.144 1.008 7.776 3.327-2.125 5.734-1.774 7.141.293 1.99 2.682 4.513 3.91 8.002 3.299 1.414-.275 3.034.17 4.426.292.821.024 1.643.049 2.715.002-.289-1.479-.291-2.909-.796-4.195-2.695-7.031-5.355-13.943-8.05-20.974-2.224-5.866-4.7-11.66-6.674-17.598-1.056-3.209-1.234-6.67-2.039-9.95-1.266-5.361-2.272-6.503-7.854-8.935-.693 1.37-1.26 2.703-1.953 4.072-.63-1.25-.918-2.728-.602-3.99.317-1.261 1.399-2.222 2.342-3.663-2.952.587-5.87 1.293-8.698 1.844 2.787-3.53 6.72-4.008 10.724-4.246-2.674-2.225-5.529-4.138-8.225-5.966.9-.648 1.562-.708 2.167-.491 1.849.77 4.04 1.313 5.582 2.431 3.382 2.803 6.547 5.797 9.713 8.792 1.485 1.395 2.253 3.126 2.554 5.12.115.878.642 1.768 1.134 2.537.492.77 1.166 1.227 2.385.747 1.38-.396 2.373.23 2.718 1.432l1.24 4.327c.483 1.682.803 1.85 2.49 1.107 2.78-1.188 5.56-2.375 8.375-3.442 3.066-1.14 3.58-.767 3.279 2.441l-.706 6.056c-.292 2.295.168 4.374 1.632 6.166 1.463 1.791 1.284 3.534.193 5.407-2.035 3.315-1.283 8.303 1.528 11.009 2.041-.456 2.643-1.669 1.853-3.003 1.524-2.258.963-3.268.562-4.194-.435-1.045-.106-1.79 1.091-1.873 2.075-.335 3.533-1.404 4.887-2.833 1.571-1.62 3.816-2.784 5.957-4.309-1.053-1.78-2.335-3.883-3.4-6.179-.63-1.25-1.26-2.5-1.514-3.858-.53-2.32.324-3.605 2.81-3.928 2.325-.407 4.16-1.583 5.73-3.204.74-.732.818-1.405.257-2.415-2.322-3.366-4.017-6.912-4.619-10.902-.3-1.995-1.046-4.123-1.848-5.974-.436-1.046-1.43-1.671-2.116-2.645-.193-5.408-.159-5.287 2.487-5.526.912-.131 1.652-.864 2.495-1.236.718-.336 1.333-1.032 2.028-.971 1.86-.143 2.58.95 1.351 2.344-2.332 2.75-1.837 4.95-.098 7.702 2.952 4.617 5.437 9.497 8.138 14.186 2.444 7.103 4.258 12.957 6.038 18.69 1.128-.324 1.536-1.741 1.91-3.28 1.173-6.319 9.608-8.608 15.046-4.314 2.37 4.003 4.19 7.514 5.885 11.06.665 1.37.348 2.632-.734 3.592-.865.768-.91 1.561-.919 2.475.038 1.55.27 3.304-1.793 4.156-.53 2.884-.71 4.626-.888 6.368 2.369 4.003 2.78 4.016 5.297 2.383 2.335-1.32 2.62-1.271 3.423.58 1.375 3.377 1.57 3.582 4.25 3.464-.436-1.046-.404-2.356-2.172-2.37-1.585-5.528-1.901-9.47-2.308-13.255-.06-1.154-.245-2.271-.179-3.461.17-.829.465-1.694 1.079-2.39-4.381-6.288-6.32-12.106-7.918-18.151-1.404-5.841-3.093-11.73-4.621-17.536-.586-2.043-.727-3.954-.115-6.08.294-.865.178-1.742-.063-2.584-.692-3.834-1.67-7.716-.913-11.704.225-1.106-.279-2.392-.84-3.402-.859-1.575-1.934-2.957-2.883-4.376.865-.768 1.755-.503 2.304-.01 1.222.95 2.354 2.056 3.36 3.199.811.938 1.633.962 2.796.759 1.664-.347 3.238-.539 4.88-.49 1.232.038 2.351.627 3.05 2.118-1.984.179-3.718.286-5.417.513.846 1.058 1.771 1.443 2.423 2.297.812.937.391 1.838-.828 2.318-.326 2.175-1.273 2.186-2.31 2.354.472 2.596 1.447 5.048 2.923 7.356 1.705 2.633 4.206 4.257 6.742 6.001 2.056 1.492 2.056 1.492 1.137 3.966.749 3.558 1.538 4.892 1.986 6.455.633 2.68 2.883 4.376 4.074 6.636 2.969 1.36 3.473 2.646 3.761 4.124.254 1.358.758 2.645 1.24 4.327.681-1.886 1.055-3.424 1.588-4.877.35-1.142.93-1.958 2.38-2.113 2.21-1.285 3.441-1.248 4.663-.297 2.68-.119 4.439.808 5.834 2.36-3.63-6.504-10.603-9.057-16.201-13.435 2.106-1.645 4.122-3.133 6.104-4.742 1.98-1.609 3.928-3.338 5.909-4.947.99-.804 1.16-1.633.815-2.835-3.628-11.707-7.04-23.605-10.668-35.312-1.814-5.854-3.844-11.515-5.658-17.368.094-3.93-.548-5.697-1.726-7.44-.47-1.166-.517-1.803-.53-2.32 5.203 1.11 7.034 3.707 8.648 6.496 1.156 2.14 2.688 4.172 4.061 6.12.915 1.298 1.827 1.166 2.326-.407.204-.71.282-1.382.486-2.09 1.342-1.947 2.185-2.318 3.029-2.69.24.841.607 1.646.438 2.475-.95 3.785-2.026 7.605-3.102 11.426-2.254 2.077-1.978 3.038-1.508 4.204 1.341 3.258 2.466 6.707 4.058 9.893 1.488 2.825 3.444 5.386 5.058 8.175 2.21 3.919 4.168 7.91 6.446 12.07 2.69-1.032 3.113-.503 3.708.627 1.937 4.387 4.033 8.86 6.22 13.175.893 1.695 2.323 3.366 3.865 4.485 4.945 3.524 8.581 7.685 10.144 13.61.345 1.202 1.213 1.863 2.718 1.432-.087-3.617-.24-6.045-.428-8.592-.116-.877-.267-1.875-.508-2.716 1.148-2.15 1.762-2.847 1.966-3.556 1.223-4.253 3.831-6.041 8.452-5.545l2.943.327c3.354.339 6.128 1.494 8.243 4.14 1.762 2.356 3.956 4.328 5.717 6.685.652.854 1.156 2.14 1.216 3.293.178 3.461-.09 6.79-2.193 9.864-.489.66-.555 1.85-.405 2.848.289 1.478.862 3.005 1.344 4.687 2.6-.875 4.37.568 6.539 1.507 2.169.94 4.61 1.41 7.018 1.76 4.761.671 25.605 262.074 20.26 408.797-5.345 146.723-184.394 58.391-184.184 59.122 0 0-176.31 28.33-298.868 14.42zm394.247-479.478c-.46.39-.986 1.058-1.78 1.286-1.985.569-2.206 1.795-1.893 3.385.17.597.21 1.232.415 1.948.176 1.113.94 1.281 1.965.858 2.446-.96 3.244-.672 4.983.897.402.401.838.922 1.406 1.405.064-.276.03-.396.03-.396-2.221-7.244-4.343-14.646-6.564-21.89-.068-.24-.303-.56-.602-.603-1-.489-2.097-.82-2.73-1.026.578 1.514 1.292 3.505 1.972 5.377.368.283 1.166.57 1.17 1.086.147 1.509 1.288 2.99-.59 4.433-.23.195-.226.71-.025.912.803.803 1.406 1.405 2.243 2.328zM192.162 333.19c-1.82 1.346-2.105 2.722-1.23 4 .285-1.376.757-2.688 1.23-4zM-17 506.13s36.048-162.88 35.405-164.228c-1.029-2.33-2.186-4.659-2.958-7.111-.772-2.33-.515-4.536 1.415-6.62.9-.981 1.157-2.943.9-4.414-.386-3.065-1.029-6.13-1.93-9.073-1.028-3.31-.9-6.13 2.187-8.582 3.987-3.065 5.53-7.234 6.174-12.015.643-5.762 1.8-11.402 2.7-17.164.13-1.226-.128-2.453-.385-3.556-.515-2.697-1.158-5.272.514-7.847.386-.613-.257-1.961-.643-2.82-.514-1.225-1.286-2.329-1.93-3.432.773-.123 1.287.122 1.673.49 1.543 1.471 3.087 2.82 3.73 4.782.128.49.771.858 1.157 1.226.386-.49.772-.859 1.158-1.349.386-.613.643-1.349.9-1.962h.515c.257.613.514 1.226.643 1.962.514 2.82-.258 5.395-1.672 7.847-1.415 2.452-1.93 5.026-1.801 7.846.514 8.092 1.029 16.184 1.543 24.398 0 .98.515 1.349 1.415.858 2.958-1.716 5.402-.613 8.103.613 2.7 1.226 4.63 2.943 5.53 5.885.643 2.452 1.8 4.782 2.958 7.111.643 1.349.386 2.452-.514 3.556-.643.613-1.158 1.348-1.93 1.839-2.957 1.839-3.472 4.904-4.5 7.724-.258.858.256 1.348 1.157 1.47h5.144c2.83-.122 5.145.86 6.817 3.066 1.672 2.33 3.344 4.536 5.016 6.866.386.49.772 1.103 1.286 1.961 3.987-6.13 7.331-12.137 6.817-19.493-.643-9.196-1.03-18.513-1.544-27.709-.386-7.11 1.286-13.976 2.187-20.842.386-2.82.9-5.64 1.286-8.582 2.444.858 2.83-.858 3.472-2.33.515-1.103.9-2.33 1.544-3.31 2.572-4.046 2.186-8.46 1.672-12.873 0-.368-.386-.858-.772-1.226-1.029-1.104-2.186-2.207-3.087-3.433-.385-.49-.514-1.226-.771-1.84.128-.122.386-.244.514-.367 1.672 1.471 3.215 3.065 4.887 4.536.13-.122.386-.245.515-.367l-1.543-2.575c-.386-.736-1.544-1.471-.386-2.207 1.029-.736 1.672.368 2.315.98.514.491.9 1.104 1.415 1.717-.258-1.226-.386-2.33-.515-3.31 0-.368.386-.858.515-1.226.385.245 1.028.49 1.157.858.643 1.226 1.029 2.575 1.543 3.8.258-.857.644-1.716 1.03-2.942 2.057 2.575 1.543 5.272 2.314 7.847.644-.123 1.158-.245 1.672-.368.644-.245 1.287-.613 2.058-.613.772 0 1.544.245 2.315.368-.257.613-.514 1.349-.9 1.716-1.93 1.594-4.116 3.065-6.045 4.782-.643.49-1.286 1.349-1.543 2.084-.643 1.962-1.03 4.046-1.415 6.13-.386 1.594-.9 3.31-1.286 5.027.9 0 1.672.123 2.572.123-.514 1.961-1.029 3.923-1.672 5.762-1.029 3.31-1.543 6.62-1.415 10.176 0 3.8-.257 7.479-.385 11.28 0 .98-.386 2.206 1.157 2.697.129 0 .129.858.257 1.226.386 1.839.643 3.678 1.158 5.517.257.735 1.029 1.471 1.672 2.084 1.415 1.103 2.7.858 3.73-.49.9-1.35 1.672-2.82 2.443-4.169 1.158-1.839 2.444-3.678 3.73-5.517.129-.245.515-.613.386-.858-.386-1.471.386-1.717 1.672-1.84.514 0 .9-.612 1.415-.858.9-.735 1.8-1.716 2.83-1.961 2.186-.49 4.372-.613 6.559-.736 1.414-.122 2.315.49 2.7 1.84.13.49.515.857.9 1.103.901.735 1.544 1.594 1.287 2.942-.129.49.643 1.226 1.158 1.717.514.613 1.157.98 1.8 1.47.643.614 1.029 1.472 1.672 1.84 2.572 1.716 3.087 4.29 2.958 6.988 0 1.104.257 2.207.515 3.31.643 2.207 1.157 4.414-.129 6.498 1.286 1.594 1.286 1.594.257 2.82l1.93 2.943c.9 1.47 1.8 2.942 2.443 4.536.32.684 1.386 1.752 1.174 2.572-.21.821-1.125 2.815-1.174 3.234-.049.419-110.242 186.417-110.756 190.586C14.527 530.692-17 506.129-17 506.129zm132.82-316.902c-1.061-.982-1.989-1.72-2.916-2.579-.133 0-.133.123-.265.123.397.86.927 1.72 1.59 2.947-.795-.614-1.193-.86-1.723-1.228 0 .369.133.614.133 1.105-.663-.614-1.06-1.105-1.856-1.842-.132 1.228-.132 2.088-.265 3.07-.398-1.105-.795-2.333-1.06-3.438-.133 0-.398.123-.53.123.397 1.965.795 4.052 1.192 6.017-.132 0-.132 0-.265.123-1.06-3.316-1.988-6.631-3.18-10.316-1.988 4.053-3.711 7.737-5.567 11.667 0-.614 0-.982-.132-1.35-.265.122-.53.368-1.06.613 1.192-3.193 2.385-6.14 3.578-9.088-.133 0-.133-.122-.265-.122-2.12 2.333-4.241 4.79-6.494 7.122-.133 0-.133-.122-.265-.122.265-.737.663-1.351.928-2.088-.133 0-.133-.123-.265-.123-.928.737-1.723 1.474-2.651 2.088l-.133-.123c.398-.491.796-1.105 1.458-1.842l-1.988.614c.398-.368.53-.614.795-.86 2.916-3.561 6.097-7.123 8.747-10.807.928-1.228.796-2.947 1.193-4.42-.132 0-.265-.124-.53-.124-1.59 2.334-3.18 4.544-4.771 6.878-.133 0-.133-.123-.265-.123l5.566-8.842c-.132 0-.132-.123-.265-.123-1.59 2.333-3.048 4.544-4.638 6.877-.133-.123-.265-.123-.398-.246 1.988-2.947 4.241-5.894 5.036-9.701-3.313 2.456-6.229 4.544-9.277 6.877-10.337-8.72-20.675-17.561-31.012-26.28 8.084-5.896 15.904-11.79 23.988-17.685 1.458 1.228 2.65 2.333 4.108 3.439.53.368 1.193.614 1.856.614 7.687-.369 13.518 4.666 13.65 11.79 0 .49.398 1.227.796 1.596l9.144 7.736c.398.369.795.737 1.458 1.229-2.916 2.087-5.566 4.175-8.35 6.263-.397.245-.795.49-1.06.86-1.988 1.473-2.253 2.455-1.192 4.789 1.06 2.21 1.988 4.42 2.783 6.754-.928-1.596-1.723-3.193-2.65-4.79-.266 1.72.264 3.685 1.457 5.527 1.06 1.597 2.12 3.193 2.916 5.035-.663-.737-1.193-1.596-1.856-2.333-.132.123-.265.123-.397.245 1.59 2.334 3.313 5.281 5.168 8.474zm277.014-68.715v9.185h-.64v-11.295h-.512v10.674h-.511c.255-4.344.64-8.688-.896-13.28-.256.62-.512.992-.64 1.365-1.023 2.606-1.919 5.337-2.942 7.943-.256.745-.512.993-1.407.87-11.258-2.359-22.516-4.593-33.774-6.827-.128 0-.128-.124-.512-.249 3.198-8.936 6.525-17.873 9.85-27.058 1.92.993 3.327-.124 4.862-.869 5.245-2.234 11.642-.496 14.968 3.972.384.62 1.152 1.117 1.92 1.241 4.477.993 8.954 1.862 13.688 2.855-1.024 2.855-2.047 5.585-3.07 8.316-.256.869-.64 1.738-.896 2.483-.768 1.986-.384 3.103 1.535 4.344 2.43 1.613 4.734 3.227 7.036 4.965-1.79-1.117-3.71-2.11-5.757-3.352 2.687 4.345 7.548 5.213 11.386 7.696-1.535-.62-3.07-1.241-4.733-1.862 0 .124-.128.248-.128.248 3.07 1.738 6.14 3.476 9.339 5.213-1.407-.248-2.687-.496-3.966-.744 0 .124-.128.124-.128.248.896.62 1.791 1.117 3.198 1.862-.895-.124-1.407-.249-2.046-.249.128.249.255.497.511.87-.767-.249-1.535-.373-2.558-.745.64 1.117 1.151 1.986 1.663 2.854l-.128.125c-.896-.87-1.92-1.738-2.815-2.607-.128.124-.256.248-.383.248 1.279 1.366 2.43 2.73 3.71 3.972l-.256.248c-2.559-2.11-4.99-4.344-7.804-6.702.64 4.468 1.28 8.564 1.79 12.66-.383-.372-.51-.745-.767-1.117-.128.372-.383.62-.64 1.117-.767-3.227-1.407-6.33-2.046-9.433h-.384c-.384 3.103-.896 6.082-1.28 9.185h-.383c-.128-.745-.256-1.49-.384-2.11h-.256c-.384 1.117-.64 2.11-1.023 3.227h-.256c.128-.62.128-1.241.256-2.234-.512.62-.768.869-1.024 1.241-.128 0-.128-.124-.256-.124l.384-1.862c.384-4.096.896-8.068 1.024-12.164 0-1.49-.896-3.103-1.408-4.716 0 .248-.255.248-.511.372zM267.164 82c3.475 3.151 6.95 6.176 10.425 9.328 5.405 4.79 10.81 9.58 16.215 14.496.643.63 1.287.882 2.188.378.514-.252 1.03-.378 1.544-.757 1.544-1.134 3.088-2.269 4.761-3.529.387.378.515.63.901.882-.257.378-.643.757-1.287 1.513.773-.378 1.159-.63 1.287-.756.258.756.515 1.386.901 2.142-.129.127-.643.379-1.158.63 0 .127 0 .127.129.253.643-.126 1.158-.252 1.93-.504 0 .378 0 .756-.129 1.26-.257.126-.9.378-1.415.63 0 .126 0 .126.128.252H305v1.513c-.515 0-1.158.126-1.673 0-2.316-.378-4.247.252-6.049 1.639-.514.504-1.415.756-2.187.63-1.416-.126-2.445.63-3.475 1.387-5.534 4.285-10.939 8.697-16.473 12.983-.257.252-.514.378-.9.63-1.287-1.134-2.446-2.269-3.861-3.277-.515-.378-1.416-.757-2.188-.757-6.82.505-13.126-5.042-13.126-11.848 0-.63-.387-1.387-.901-1.891l-8.88-7.941-1.287-1.26C251.593 94.1 259.314 88.05 267.165 82zm-96.13 14.009c.26-.628.39-1.005.39-1.256.648.377 1.297.628 2.075 1.13 0 .126-.26.628-.39 1.13.13 0 .13.126.26.126.39-.502.778-1.005 1.167-1.632.26.25.649.502.908.879l-.778 1.506c.13 0 .13.126.26.126l1.037-1.005c.389.377.648.754 1.037 1.256-.389.377-.908 1.004-1.556 1.381-1.816 1.13-2.594 2.637-2.983 4.646-.13.753-.518 1.632-1.167 2.134-1.296 1.005-1.556 2.386-1.686 3.893-1.037 6.529-2.204 13.183-3.241 19.712 0 .377-.13.754-.26 1.256h-5.057c-.908 0-1.556.251-2.205 1.004-4.668 5.023-13.227 4.897-17.895-.125-.389-.502-1.297-.753-1.945-.879-4.02-.126-8.04 0-12.19 0H125c.648-4.269 1.297-8.412 2.075-12.556.778-4.897 1.686-9.794 2.334-14.69.13-1.256.648-1.507 1.945-1.507h34.494c1.037 0 1.815-.126 2.075-1.256.259-1.004.648-2.009.907-3.013.39-1.381.649-2.762 1.168-4.018 0 .502.13.879.13 1.381h.259c.13-.376.13-.879.389-1.632.13.879.259 1.381.259 2.009zM17 111.139c3.545-5.363 7.09-10.726 10.761-16.214-2.912-.374-5.57-.748-8.482-.998.38-1.247.633-2.12 1.013-2.993 2.025-4.988 4.05-9.852 6.203-14.841.38-.873 1.266-1.87 2.152-2.37 5.191-2.993 10.382-5.737 15.573-8.605l1.772-.873c1.14 2.744 2.152 5.487 3.165 8.106C53.715 68.86 58.272 65.367 62.704 62c.126.125.38.25.506.374-2.659 5.862-5.317 11.724-7.976 17.835 1.772 1.247 3.671 2.37 5.95 2.12 2.153-.25 3.925.499 5.697 1.372 3.039 1.496 5.95 3.242 8.356 5.861 2.026 2.12 4.938 2.869 7.47 4.116.506.25 1.14.499 1.519.998-1.772-.624-3.418-1.372-5.19-1.996l-.254.25c1.14.873 2.152 1.87 3.418 2.494 1.393.624 2.786.998 4.305 1.497 1.392.374 2.785.873 4.178 1.496-1.393-.25-2.786-.623-4.178-.873 0 .125-.127.25-.127.374 3.165 1.123 6.33 2.37 9.622 3.492h-3.545v.375c1.013.374 2.026.748 3.292 1.371h-2.152c.38.25.633.5 1.012.749-.76 0-1.266-.125-2.152-.125.76.624 1.266.998 1.9 1.497-.507-.125-.76-.125-1.267-.25.38.5.633.873 1.013 1.247-1.266-.623-2.279-1.372-3.418-1.995-.127.125-.254.25-.254.374 1.773 1.247 3.419 2.62 5.318 3.991-2.026-.873-3.925-1.746-6.33-2.868.886.997 1.519 1.746 2.152 2.494l-.253.25-4.938-5.613c-.126.125-.253.125-.38.25 1.266 3.866 2.532 7.857 3.925 12.097-.506-.499-.633-.748-.886-1.122l-.38 1.122c-1.266-2.993-2.405-5.986-3.545-8.855h-.253v9.23h-.253l-.76-2.246h-.253c-.127 1.247-.38 2.37-.506 3.617-.127-.748-.254-1.497-.38-2.494-.38.623-.633 1.122-1.013 1.87v-2.743c-.38-3.867-.507-7.733-1.14-11.599-.253-1.621-1.392-3.118-2.152-4.614-.126 0-.38.124-.506.124.506 2.993.886 6.111 1.392 9.105h-.253l-2.279-11.225c-.126 0-.253 0-.253.125.507 3.118 1.013 6.236 1.52 9.229-.127 0-.254 0-.38.124l-.76-4.863c-.886-4.49-2.659-8.481-6.71-11.1-1.52-.998-2.912-2.12-4.558-2.993-.76-.375-1.645-.624-2.405-.5-3.039.125-4.938-1.62-6.963-3.367-.253-.25-.38-.623-.76-1.122-1.392 2.868-2.658 5.363-3.671 7.857-1.013 2.62-2.786 4.365-5.191 5.862-9.622 5.612-19.117 11.349-28.612 17.086-.886-.374-1.013-.499-1.013-.624zm416.912-25.786c3.572 4.316 7.144 8.633 10.589 12.95-.128.126-.255.38-.383.507-2.934-.507-5.74-.888-8.803-1.396 2.935 4.57 7.017 5.713 11.738 4.824.893-1.015 1.786-1.904 2.551-2.793.128-.127.255-.38.255-.635-.255-2.539 1.149-4.443 2.042-6.601.637-1.27 1.02-2.667 1.658-4.063.51-1.397 1.02-2.666 1.786-3.936v1.904h.255c.128-.507.256-1.015.383-1.65h.383c0 .635 0 1.27-.128 2.285.383-.761.51-1.27.638-1.523.766.508 1.404 1.015 2.297 1.523-.128.127-.383.762-.638 1.27.127 0 .127.127.255.127.51-.635 1.02-1.143 1.53-1.778.384.508.639.762 1.021 1.27-.382.508-.637 1.016-1.02 1.65l.255.254c.51-.38 1.02-.761 1.403-1.015.383.508.638 1.015 1.021 1.65-.383.254-.893.762-1.531 1.016-2.424 1.142-3.572 3.3-4.593 5.713-.893 2.158-2.551 3.936-5.23 3.936-.256 0-.51.254-.51.38-.894 1.397-2.17 1.778-3.7 1.778-2.042-.127-4.083-.127-6.125-.254-.637 0-1.275-.38-1.786-.635-.638-.38-1.403-.888-1.913-1.523-2.297-2.92-5.359-3.936-8.803-4.444-2.807-.38-5.486-1.142-8.165-1.777-.638-.127-1.404-.508-1.787-1.016-7.782-9.14-15.437-18.282-23.092-27.423L395 64.785c0-.127.128-.253.128-.38 5.868 1.142 11.864 2.158 17.733 3.3 1.148-1.904 2.424-3.681 3.572-5.586 1.021-1.523 2.424-2.412 4.338-2.031 3.19.635 6.38 1.523 9.569 2.412.51.127 1.02.762 1.403 1.397 2.041 4.062 4.338 7.998 5.996 12.315 1.914 4.57.893 6.602-3.444 9.14-.128-.126-.256 0-.383 0zM356 80.119c-1.023.12-1.79.24-2.43.24h-14.707c-1.15 0-1.662.24-2.046 1.32-.64 1.8-1.407 3.6-2.43 5.28-.511.84-1.662 1.56-2.558 1.68-3.58.72-7.161.24-10.614-.36-.767-.12-1.407-.72-1.918-1.32-2.558-3.12-5.244-6.12-7.546-9.36-3.197-4.56-2.685-6.36 1.663-9.96-4.22-3.36-8.569-6.72-12.789-10.08.128-.24.128-.36.256-.6h8.824c0-.12.128-.36.128-.48-2.558-1.32-4.604-3.719-8.057-3.119l-2.685.36c-1.28.24-2.43.24-2.558 1.92 0 .6-.895 1.2-1.407 2.04.895 2.28-.256 4.56-.895 6.84l-.767 3.24c-.256 1.56-.512 3.12-1.024 4.68-.127-.6-.255-1.08-.255-1.68h-.256c0 .48-.128 1.08-.128 1.56-.128 0-.256 0-.256.12-.128-.6-.128-1.08-.255-2.04-.256.72-.384 1.2-.768 2.04v-2.28h-.256c-.127.36-.127.72-.255.96-.64 0-1.151-.12-1.919-.12.128-.36.256-.96.384-1.56-.128 0-.128-.12-.256-.12-.383.6-.767 1.32-1.15 1.8-.768.36.127-1.8-1.28-.6.256-.72.64-1.32.896-2.04-.128 0-.128-.12-.256-.12-.384.48-.895.96-1.151 1.32-.384-.48-.767-.84-1.279-1.32.256-.24.64-.6 1.151-.96 2.046-1.68 3.197-3.72 3.709-6.36.383-2.04 1.79-4.08 4.476-4.56.128 0 .383-.24.511-.48.512-1.44 1.663-2.04 3.07-2.16 1.79-.24 3.452-.72 5.243-.84 1.279 0 2.685.48 3.964.72.384.12.64.24.896.48 2.94 2.52 6.394 2.88 10.103 2.64 2.685-.12 5.37.12 8.056.24.64 0 1.28.24 1.79.6 9.209 6.96 18.416 14.04 27.496 21.119.384.36.896.72 1.535 1.32zm-124.467 24.717c.4-.499.8-.872 1.2-1.37.134 0 .134.124.267.124-.267.498-.533 1.121-.8 1.62l.133.124c.4-.374.667-.748 1.067-1.246.267.997.533 1.744.8 2.491.4-.125.667-.25.933-.374 0 .125.134.125.134.25-.534.373-1.067.871-1.6 1.245 0 .124.133.124.133.249.8-.374 1.6-.623 2.667-1.121-.267.623-.4.872-.534 1.245.267 0 .534.125.934.125-.8.498-1.467.872-2 1.245 0 .125.133.25.133.25.667-.125 1.2-.25 2-.374v1.868c-.8.124-2 .498-3.2.622-1.733.125-3.2.748-4.267 1.993-1.6 1.992-3.866 2.49-6.266 2.864-.667.125-1.334-.249-2.134-.498-1.2.996-2.8 1.12-4.4.249-.133 0-.133-.124-.266-.124-4.934-1.37-8.134-4.36-9.467-8.967-.267-.872-1.2-1.743-2-2.366-3.333-2.366-6.8-4.608-10.133-6.974-.534-.373-1.067-.996-1.334-1.619-3.466-11.208-6.8-22.416-10.266-33.624-.134-.498-.267-.996-.267-1.37l.4-.373L199 71.087c1.867-1.12 3.733-2.366 5.6-3.487 1.867-1.12 3.867-1.245 5.733 0 2.534 1.744 5.067 3.612 7.467 5.604.533.374.8 1.121.8 1.744.267 4.856.667 9.589.4 14.445-.133 3.985-2.267 5.604-6.533 5.853-.267 0-.667 0-.934.125 1.6 5.355 3.067 10.585 4.534 15.816-.134.124-.4.249-.534.373-2.666-1.619-5.2-3.238-7.866-4.857.933 5.23 4.266 8.095 9.2 9.216 1.466-.623 2.666-1.245 4.133-1.993.667-2.241 2.933-3.487 4.933-5.105.934-.872 2-1.62 2.934-2.491 1.2-1.12 2.266-2.366 3.733-3.362-.267.622-.533 1.12-.933 1.743-.267 0-.267.125-.134.125z" opacity=".2" style="mix-blend-mode:multiply" mask="url(#10zc5jpryd)"/>
            </g>
        </g>
    </g>
</svg>
