<svg xmlns="http://www.w3.org/2000/svg" width="115" height="115" viewBox="0 0 115 115">
    <defs>
        <linearGradient id="gytv8dkjya" x1="50%" x2="50%" y1="0%" y2="100%">
            <stop offset="0%" stop-color="#E66F23"/>
            <stop offset="100%" stop-color="#F76B1C"/>
        </linearGradient>
    </defs>
    <g fill="none" fill-rule="evenodd">
        <g fill="url(#gytv8dkjya)" fill-rule="nonzero" transform="translate(-814 -359)">
            <g>
                <g>
                    <path d="M110.053 96.408l-24.518-7.946c-.584-.199-1.198-.298-1.815-.295h-.345l-5.175-6.9c-.311-.415-.777-.686-1.292-.752-.08 0-.161.007-.241.02V80.5H74.75v-6.122c4.833-3.747 7.663-9.517 7.667-15.632V42.987c.33.002.655-.083.943-.245.601-.34.973-.977.973-1.668V25.9l9.584-3.887v2.904c-2.118 0-3.834 1.716-3.834 3.833v11.5c0 2.117 1.716 3.833 3.834 3.833h3.833c2.117 0 3.833-1.716 3.833-3.833v-11.5c0-2.117-1.716-3.833-3.833-3.833v-5.75c0-.754-.44-1.438-1.127-1.748L58.29.169c-.5-.225-1.072-.225-1.572 0l-38.333 17.25c-.966.433-1.397 1.568-.964 2.533.203.45.571.806 1.029.991L30.667 25.9v15.174c0 1.059.858 1.917 1.916 1.917v15.755c.004 6.115 2.834 11.885 7.667 15.632V80.5h-1.917v.034c-.08-.012-.16-.018-.241-.019-.515.066-.98.337-1.292.752l-5.175 6.9h-.345c-.604-.004-1.205.091-1.779.283L4.834 96.447c-2.925 1.144-4.846 3.97-4.834 7.11v9.526C0 114.142.858 115 1.917 115h111.166c1.059 0 1.917-.858 1.917-1.917v-9.525c0-3.181-1.97-6.03-4.947-7.15zM97.75 28.75v11.5h-3.833v-11.5h3.833zM76.326 85.148l3.497 4.675-14.58 12.96-4.868-4.874 15.95-12.761zM57.5 95.295L44.083 84.56v-7.839c2.61 1.224 5.456 1.859 8.338 1.861h10.158c2.882-.002 5.728-.637 8.338-1.86v7.838L57.5 95.295zM32.3 17.273c-.938.14-1.632.945-1.633 1.894v2.597L24.04 19.08 57.5 4.025 90.96 19.08l-6.627 2.684v-2.597c0-.946-.69-1.75-1.625-1.894L57.791 13.44c-.19-.03-.384-.03-.575 0L32.3 17.273zm2.162 7.644c.021-.101.034-.204.038-.307v-3.799l23-3.538 23 3.538v3.799c.004.103.017.206.038.307H80.5v13.09c-2.751-1.061-5.676-1.6-8.625-1.59-4.783-.084-9.462 1.406-13.315 4.241-.383.295-.73.596-1.06.909-.33-.31-.678-.612-1.056-.905-3.854-2.838-8.534-4.33-13.319-4.245-2.949-.01-5.874.529-8.625 1.59v-13.09h-.038zm1.955 33.829V41.417c2.152-.771 4.421-1.166 6.708-1.167 3.927-.089 7.774 1.115 10.95 3.425.711.545 1.346 1.184 1.888 1.898.635.847 1.836 1.018 2.683.383.145-.11.274-.238.383-.383.543-.716 1.18-1.355 1.892-1.902 3.178-2.31 7.027-3.512 10.954-3.421 2.287.001 4.556.396 6.708 1.167v17.329c-.01 8.834-7.17 15.993-16.004 16.004H52.421c-8.835-.01-15.994-7.17-16.004-16.004zm2.263 26.402l15.945 12.761-4.868 4.874-14.58-12.96 3.503-4.675zm72.487 26.019H3.833v-7.61c-.016-1.527.893-2.913 2.3-3.507l24.59-7.966c.18-.059.368-.087.557-.084h.575l16.706 14.848c.758.674 1.91.64 2.627-.076l6.312-6.312 6.312 6.312c.717.717 1.87.75 2.627.076L83.145 92h.575c.203-.002.404.031.596.098l24.441 7.914c1.46.57 2.417 1.98 2.41 3.546v7.609z" transform="translate(722 345) translate(92 14)"/>
                </g>
            </g>
        </g>
    </g>
</svg>
