<svg xmlns="http://www.w3.org/2000/svg" width="34" height="22" viewBox="0 0 34 22">
    <g fill="none" fill-rule="evenodd">
        <g fill="#FFF">
            <g>
                <g>
                    <g>
                        <g>
                            <path fill-rule="nonzero" d="M3.249 19.135H30.75c.57 0 1.032-.449 1.032-1V1c0-.552-.463-1-1.032-1H3.25C2.68 0 2.217.448 2.217 1v17.135c0 .551.463 1 1.032 1zM3.1 1c0-.08.066-.143.148-.143H30.75c.082 0 .148.064.148.143v17.135c0 .079-.066.143-.148.143H3.25c-.082 0-.148-.064-.148-.143V1zm20.464 10.045l-.023-.022.343-.345.03.028.119-.115.08.077-1.042 1.012-.08-.078.573-.557zM34 19.9v.8c0 .211-.177.383-.396.383H.396c-.219 0-.396-.172-.396-.384v-.8h13.964c.069.224.28.387.532.387h5.008c.252 0 .463-.163.533-.386H34zm-13.026-6.423c-.187.18-.407.319-.654.41l-.216.08.083-.209c.094-.24.237-.453.423-.634l.112-.108.364.352-.112.109zm.257-.25l-.363-.352 2.982-2.89.364.352-2.983 2.89zm3.03-3.097l-.179-.179.351-.34.179.178-.352.341z" transform="translate(-494 -356) translate(474 329) translate(20 18) translate(0 9)"/>
                            <path stroke="#FFF" stroke-width=".5" d="M21.967 6.645h0c.093.09.145.212.145.34v7.121c0 .75-.626 1.356-1.391 1.356h-7.204c-.765 0-1.39-.606-1.39-1.356V5.167c0-.75.625-1.356 1.39-1.356h5.328c.127 0 .25.05.34.137l2.782 2.697zm-.825.818h-1.39c-.37 0-.72-.14-.982-.395-.263-.255-.41-.598-.41-.961v-1.34h-4.843c-.234 0-.421.181-.421.4v8.94c0 .218.187.4.421.4h7.204c.234 0 .421-.182.421-.4V7.462zM19.33 5.429v.678c0 .106.042.204.12.28.08.078.187.12.301.12h.692L19.33 5.43zm-.153 5.456c.266 0 .485.212.485.478 0 .265-.219.477-.485.477h-4.209c-.266 0-.484-.212-.484-.477 0-.266.218-.478.484-.478h4.21zm0-1.241c.266 0 .485.212.485.477 0 .266-.219.478-.485.478h-4.209c-.266 0-.484-.212-.484-.478 0-.265.218-.477.484-.477h4.21zm0-1.263c.266 0 .485.212.485.477 0 .266-.219.478-.485.478h-4.209c-.266 0-.484-.212-.484-.478 0-.265.218-.477.484-.477h4.21z" transform="translate(-494 -356) translate(474 329) translate(20 18) translate(0 9)"/>
                        </g>
                    </g>
                </g>
            </g>
        </g>
    </g>
</svg>
