<svg xmlns="http://www.w3.org/2000/svg" width="31" height="27" viewBox="0 0 31 27">
    <g fill="none" fill-rule="evenodd">
        <g fill="#053C6D" fill-rule="nonzero">
            <g>
                <g>
                    <g>
                        <path d="M30.671 10.674L16.005.198c-.283-.201-.667-.201-.95 0L.39 10.674c-.358.256-.436.747-.173 1.096.262.35.765.425 1.123.17L15.53 1.803 29.721 11.94c.143.102.31.151.474.151.248 0 .492-.111.65-.32.262-.35.184-.841-.174-1.097z" transform="translate(-22 -299) translate(0 290) translate(22 9)"/>
                        <path d="M26.785 12.117c-.444 0-.804.351-.804.784v12.483H19.55V18.57c0-2.162-1.803-3.921-4.02-3.921-2.216 0-4.02 1.76-4.02 3.921v6.814H5.08V12.901c0-.433-.36-.784-.804-.784-.444 0-.804.351-.804.784V26.17c0 .433.36.784.804.784h8.038c.423 0 .77-.319.801-.723.002-.018.003-.039.003-.061V18.57c0-1.297 1.082-2.353 2.412-2.353 1.33 0 2.412 1.056 2.412 2.353v7.599c0 .022.001.042.003.06.032.405.378.724.801.724h8.039c.444 0 .804-.351.804-.784V12.9c0-.433-.36-.784-.804-.784z" transform="translate(-22 -299) translate(0 290) translate(22 9)"/>
                    </g>
                </g>
            </g>
        </g>
    </g>
</svg>
