<svg xmlns="http://www.w3.org/2000/svg" width="32" height="28" viewBox="0 0 32 28">
    <g fill="none" fill-rule="evenodd">
        <g fill="#4A4A4A" fill-rule="nonzero" stroke="#4A4A4A" stroke-width=".2">
            <path d="M2093.234 938.487h-3.72c-.429 0-.837-.143-1.173-.4l-5.215 4.656c-.419.36-.975.554-1.554.554-.578 0-1.135-.194-1.553-.553l-10.069-8.658c-.026.094-.04.191-.04.29v13.626c0 .605.501 1.099 1.117 1.099h21.09c.616 0 1.117-.494 1.117-1.1v-9.514zm1.01 0v9.515c0 1.157-.954 2.098-2.126 2.098h-21.091c-1.172 0-2.127-.94-2.127-2.098v-13.626c0-1.157.955-2.098 2.127-2.098h16.522v-1.023c0-.958.653-1.778 1.548-1.978v-1.414c0-2.187 1.898-3.963 4.227-3.963 2.33 0 4.228 1.776 4.228 3.963v1.414c.894.2 1.548 1.02 1.548 1.978v5.206c0 1.117-.88 2.026-1.965 2.026h-2.89zm-6.695-6.209h.1l-.1.1v-.1zm0 1h-16.522c-.137 0-.27.024-.394.07l10.049 8.64c.48.414 1.3.414 1.779.002l5.26-4.698c-.113-.259-.172-.54-.172-.83v-3.185zm2.484-4.196h6.582v-1.276c0-1.667-1.474-3.027-3.29-3.027-1.817 0-3.292 1.36-3.292 3.027v1.276zm8.204 7.305v-5.058c0-.692-.544-1.253-1.21-1.253h-7.405c-.666 0-1.21.561-1.21 1.253v5.058c0 .691.544 1.253 1.21 1.253h7.404c.667 0 1.21-.562 1.21-1.253zm-4.507-3.695c.724 0 1.316.556 1.316 1.242v1.713c0 .686-.592 1.242-1.316 1.242-.725 0-1.316-.556-1.316-1.242v-1.713c0-.686.591-1.242 1.316-1.242zm.508 2.898v-1.599c0-.235-.225-.433-.508-.433-.283 0-.508.198-.508.433v1.599c0 .235.225.433.508.433.283 0 .508-.198.508-.433z" transform="translate(-2068 -923)"/>
        </g>
    </g>
</svg>
