<svg xmlns="http://www.w3.org/2000/svg" width="40" height="40" viewBox="0 0 40 40">
    <g fill="none" fill-rule="evenodd">
        <g>
            <g>
                <path fill="#FFF" d="M0 0H40V40H0z" opacity=".098" transform="translate(-333 -19) translate(333 19)"/>
                <g fill-rule="nonzero">
                    <path fill="#AE2E2D" d="M38.95 15.266l-.946-5.05c-.057-.302-.355-.502-.666-.447-.31.055-.517.344-.46.646l.945 5.051c.092.487-.017.98-.307 1.387-.29.407-.725.68-1.228.77l-3.686.67c-.311.057-.516.347-.458.65.052.266.292.453.563.453.035 0 3.79-.68 3.79-.68.802-.142 1.499-.58 1.962-1.232.463-.652.637-1.44.49-2.218z" transform="translate(-333 -19) translate(333 19) translate(1 8)"/>
                    <path fill="#053C6D" d="M29.901 18.762l-12.689 2.26c-1.035.185-2.032-.483-2.222-1.488L13.067 9.362c-.19-1.005.498-1.973 1.533-2.157l19.078-3.4c.5-.089 1.008.017 1.428.298.42.281.701.704.794 1.19l.487 2.579c.057.302.355.501.666.446.311-.055.517-.345.46-.647l-.487-2.578c-.147-.779-.598-1.455-1.27-1.905-.671-.45-1.483-.62-2.285-.476l-.054.01-.087-.459c-.133-.705-.541-1.318-1.15-1.725-.608-.408-1.343-.56-2.07-.431l-19.644 3.5c-1.5.267-2.496 1.67-2.22 3.126l2.026 10.722c.244 1.293 1.41 2.2 2.719 2.2.165 0 .332-.014.5-.044l.338-.06.034.184c.27 1.428 1.558 2.43 3.003 2.43.182 0 .367-.016.553-.05l12.689-2.26c.31-.055.517-.345.46-.647-.057-.302-.356-.502-.667-.446zm-16.616-.244c-.88.157-1.726-.41-1.887-1.264L9.372 6.532c-.162-.853.422-1.675 1.301-1.832l19.644-3.5c.426-.075.857.014 1.213.253.357.239.596.598.674 1.011l.087.458-17.898 3.19c-1.656.294-2.756 1.843-2.452 3.451l1.68 8.895-.336.06z" transform="translate(-333 -19) translate(333 19) translate(1 8)"/>
                    <g fill="#AE2E2D" stroke="#AE2E2D" stroke-width=".5">
                        <path d="M6.607 8.268c-1.883.697-3.998-.206-4.723-2.017l-.039-.101h3.776c.14 0 .256-.11.256-.246 0-.134-.115-.245-.256-.245H1.71c-.077-.388-.084-.788-.026-1.178H6.03c.14 0 .255-.11.255-.245S6.17 3.99 6.03 3.99H1.8c.58-1.855 2.618-2.908 4.552-2.35.084.024.171.051.258.083.13.049.278-.012.332-.14.051-.125-.013-.267-.146-.319h-.002C4.648.471 2.239 1.5 1.41 3.561c-.056.14-.105.282-.143.427H.256c-.14 0-.255.11-.255.245s.115.246.255.246h.912c-.05.392-.043.787.023 1.178H.256c-.14 0-.255.11-.255.245s.115.245.255.245h1.055c.667 2.116 2.992 3.31 5.192 2.673.097-.03.194-.062.288-.096.13-.049.197-.191.146-.316-.051-.126-.2-.19-.33-.14z" transform="translate(-333 -19) translate(333 19) translate(1 8) rotate(-10 54.505 -117.23)"/>
                    </g>
                    <path fill="#AE2E2D" d="M.709 15.922l3.453-.82c.307-.073.495-.374.42-.672-.075-.298-.385-.48-.692-.408l-3.453.82c-.307.073-.496.373-.42.672.063.254.298.424.555.424.045 0 .091-.005.137-.016zM8.366 20.007l-3.453.82c-.308.072-.496.373-.42.671.063.254.297.424.555.424.045 0 .091-.005.137-.016l3.453-.82c.307-.072.495-.373.42-.671-.075-.298-.385-.48-.692-.408z" transform="translate(-333 -19) translate(333 19) translate(1 8)"/>
                    <path fill="#053C6D" d="M6.722 16.631l-5.371 1.341c-.306.077-.49.38-.412.677.066.25.299.418.554.418.047 0 .095-.006.143-.018l5.371-1.341c.306-.076.49-.38.412-.677-.079-.297-.39-.476-.697-.4z" transform="translate(-333 -19) translate(333 19) translate(1 8)"/>
                    <path fill="#AE2E2D" d="M6.787 14.522c.044 0 .088-.005.133-.015l.725-.166c.308-.071.499-.37.426-.67-.073-.298-.382-.483-.69-.412l-.725.166c-.308.07-.498.37-.425.67.062.255.297.427.556.427zM2.143 21.583l-1.305.298c-.307.07-.498.37-.426.669.062.256.297.428.557.428.043 0 .087-.004.132-.014l1.304-.299c.308-.07.499-.37.426-.668-.072-.299-.38-.484-.688-.414z" transform="translate(-333 -19) translate(333 19) translate(1 8)"/>
                </g>
            </g>
        </g>
    </g>
</svg>
