<svg xmlns="http://www.w3.org/2000/svg" width="27" height="21" viewBox="0 0 27 21">
    <g fill="none" fill-rule="evenodd">
        <g fill="#FFF" fill-rule="nonzero">
            <g>
                <g>
                    <g>
                        <g>
                            <path d="M14.89 5.052L7.06-3.609c-.47-.521-1.236-.521-1.707 0-.47.52-.47 1.367 0 1.888L12.333 6l-6.98 7.721c-.47.521-.47 1.368 0 1.888.471.521 1.236.521 1.707 0l7.83-8.658c.239-.265.355-.61.352-.948 0-.347-.116-.69-.352-.951z" transform="translate(-973 -359) translate(474 329) translate(20 18) matrix(0 -1 -1 0 506 33) rotate(-90 10.121 6)"/>
                            <path d="M14.769 13.052l-7.83-8.661c-.471-.521-1.236-.521-1.707 0-.47.52-.47 1.367 0 1.888L12.212 14l-6.98 7.721c-.47.521-.47 1.368 0 1.888.47.521 1.236.521 1.707 0l7.83-8.658c.239-.265.355-.61.352-.948 0-.347-.116-.69-.352-.951z" opacity=".5" transform="translate(-973 -359) translate(474 329) translate(20 18) matrix(0 -1 -1 0 506 33) rotate(-90 10 14)"/>
                            <path d="M14.769 20.93l-7.83-8.66c-.471-.521-1.236-.521-1.707 0-.47.52-.47 1.367 0 1.888l6.98 7.72-6.98 7.722c-.47.52-.47 1.367 0 1.888.47.52 1.236.521 1.707 0l7.83-8.658c.239-.265.355-.61.352-.949 0-.347-.116-.689-.352-.95z" opacity=".3" transform="translate(-973 -359) translate(474 329) translate(20 18) matrix(0 -1 -1 0 506 33) rotate(-90 10 21.879)"/>
                        </g>
                    </g>
                </g>
            </g>
        </g>
    </g>
</svg>
