<svg xmlns="http://www.w3.org/2000/svg" width="112" height="112" viewBox="0 0 112 112">
    <defs>
        <linearGradient id="o91z7t745a" x1="50%" x2="50%" y1="0%" y2="100%">
            <stop offset="0%" stop-color="#E66F23"/>
            <stop offset="100%" stop-color="#F76B1C"/>
        </linearGradient>
        <linearGradient id="6v25qgz0zb" x1="50%" x2="50%" y1="0%" y2="100%">
            <stop offset="0%" stop-color="#E66F23"/>
            <stop offset="100%" stop-color="#F76B1C"/>
        </linearGradient>
        <linearGradient id="leonj9wg9c" x1="50%" x2="50%" y1="0%" y2="100%">
            <stop offset="0%" stop-color="#E66F23"/>
            <stop offset="100%" stop-color="#F76B1C"/>
        </linearGradient>
        <linearGradient id="3ocvt711rd" x1="50%" x2="50%" y1="0%" y2="100%">
            <stop offset="0%" stop-color="#E66F23"/>
            <stop offset="100%" stop-color="#F76B1C"/>
        </linearGradient>
        <linearGradient id="dlt2cbz00e" x1="50%" x2="50%" y1="0%" y2="100%">
            <stop offset="0%" stop-color="#E66F23"/>
            <stop offset="100%" stop-color="#F76B1C"/>
        </linearGradient>
        <linearGradient id="yj59gcjhbf" x1="50%" x2="50%" y1="0%" y2="100%">
            <stop offset="0%" stop-color="#E66F23"/>
            <stop offset="100%" stop-color="#F76B1C"/>
        </linearGradient>
    </defs>
    <g fill="none" fill-rule="evenodd">
        <g fill-rule="nonzero">
            <g>
                <g>
                    <path fill="url(#o91z7t745a)" d="M7.226 7.226L7.226 18.065 10.839 18.065 10.839 10.839 18.065 10.839 18.065 7.226zM10.839 43.355L10.839 36.129 7.226 36.129 7.226 46.968 18.065 46.968 18.065 43.355zM86.71 7.226L86.71 10.839 93.935 10.839 93.935 18.065 97.548 18.065 97.548 7.226z" transform="translate(-817 -690) translate(722 675) translate(95 15)"/>
                    <path fill="url(#o91z7t745a)" d="M104.774 36.311V0H0v54.194h57.806v48.774c0 4.98 4.052 9.032 9.033 9.032h36.129c4.98 0 9.032-4.052 9.032-9.032V45.16c0-4.36-3.109-8.01-7.226-8.85zm-46.968 14.27H3.613V3.613h97.548v32.516H70.07c1.436-2.786 2.19-5.853 2.19-9.032 0-10.956-8.916-19.871-19.872-19.871s-19.87 8.915-19.87 19.87c0 10.957 8.914 19.872 19.87 19.872 1.848 0 3.658-.28 5.42-.786v4.399zm.544-8.393c-1.913.76-3.913 1.167-5.963 1.167-8.964 0-16.258-7.295-16.258-16.258 0-8.964 7.294-16.258 16.258-16.258 8.964 0 16.258 7.294 16.258 16.258 0 3.284-.99 6.424-2.849 9.137-3.468.406-6.322 2.756-7.446 5.954zm50.037 60.78c0 2.988-2.431 5.42-5.42 5.42H66.84c-2.988 0-5.42-2.432-5.42-5.42V45.16c0-2.988 2.432-5.42 5.42-5.42h36.129c2.988 0 5.42 2.432 5.42 5.42v57.807z" transform="translate(-817 -690) translate(722 675) translate(95 15)"/>
                    <g fill="url(#6v25qgz0zb)" transform="translate(-817 -690) translate(722 675) translate(95 15) translate(45.763 18.065)">
                        <path d="M12.537 15.324c-3.563 1.47-7.567-.434-8.94-4.251l-.072-.212h7.146c.266 0 .483-.233.483-.517 0-.285-.217-.517-.483-.517H3.269c-.145-.818-.16-1.66-.049-2.483h8.224c.266 0 .484-.233.484-.517 0-.285-.218-.517-.484-.517H3.438C4.535 2.4 8.393.18 12.053 1.355c.16.052.324.109.489.176.246.103.527-.026.628-.295.097-.264-.024-.564-.275-.672h-.005c-4.061-1.67-8.62.496-10.187 4.84-.106.295-.198.595-.27.9H.517c-.266 0-.484.233-.484.518 0 .284.218.517.484.517h1.726c-.097.827-.083 1.66.043 2.482H.517c-.265 0-.483.233-.483.518 0 .284.218.517.484.517h1.996c1.262 4.458 5.662 6.977 9.825 5.632.183-.062.367-.13.546-.202.247-.103.372-.403.276-.667-.097-.264-.378-.398-.624-.295z"/>
                    </g>
                    <path fill="url(#leonj9wg9c)" d="M93.935 79.484v25.29h10.84v-25.29h-10.84zm7.226 21.677h-3.613V83.097h3.613v18.064z" transform="translate(-817 -690) translate(722 675) translate(95 15)"/>
                    <path fill="url(#o91z7t745a)" d="M79.484 93.935v10.84h10.839v-10.84h-10.84zm7.226 7.226h-3.613v-3.613h3.613v3.613zM65.032 93.935v10.84h10.839v-10.84H65.032zm7.226 7.226h-3.613v-3.613h3.613v3.613zM79.484 79.484v10.839h10.839v-10.84h-10.84zm7.226 7.226h-3.613v-3.613h3.613v3.613zM65.032 79.484v10.839h10.839v-10.84H65.032zm7.226 7.226h-3.613v-3.613h3.613v3.613zM79.484 65.032v10.839h10.839V65.032h-10.84zm7.226 7.226h-3.613v-3.613h3.613v3.613zM93.935 65.032v10.839h10.84V65.032h-10.84zm7.226 7.226h-3.613v-3.613h3.613v3.613zM65.032 65.032v10.839h10.839V65.032H65.032zm7.226 7.226h-3.613v-3.613h3.613v3.613z" transform="translate(-817 -690) translate(722 675) translate(95 15)"/>
                    <path fill="url(#3ocvt711rd)" d="M65.032 43.355v18.064h39.742V43.355H65.032zm36.13 14.451H68.644V46.968h32.516v10.838z" transform="translate(-817 -690) translate(722 675) translate(95 15)"/>
                    <path fill="url(#dlt2cbz00e)" d="M45.161 61.42c-2.988 0-5.42 2.43-5.42 5.419 0 .072.019.14.023.213l-8.617 3.447c-.994-1.128-2.432-1.854-4.05-1.854-1.306 0-2.491.484-3.427 1.256l-9.327-5.595c.07-.35.109-.71.109-1.08 0-2.988-2.432-5.42-5.42-5.42s-5.42 2.432-5.42 5.42 2.432 5.42 5.42 5.42c1.306 0 2.491-.485 3.427-1.256l9.327 5.596c-.07.349-.109.708-.109 1.079 0 2.987 2.432 5.419 5.42 5.419s5.42-2.432 5.42-5.42c0-.072-.019-.14-.023-.213l8.617-3.446c.994 1.127 2.432 1.853 4.05 1.853 2.988 0 5.42-2.431 5.42-5.42 0-2.987-2.432-5.419-5.42-5.419zM9.032 65.031c-.995 0-1.806-.81-1.806-1.806s.81-1.807 1.806-1.807 1.807.811 1.807 1.807c0 .995-.811 1.806-1.807 1.806zm18.065 10.839c-.996 0-1.807-.811-1.807-1.806 0-.996.811-1.807 1.807-1.807.995 0 1.806.811 1.806 1.807 0 .995-.81 1.806-1.806 1.806zm18.064-7.226c-.995 0-1.806-.81-1.806-1.806s.81-1.807 1.806-1.807 1.807.811 1.807 1.807c0 .995-.811 1.806-1.807 1.806z" transform="translate(-817 -690) translate(722 675) translate(95 15)"/>
                    <path fill="url(#yj59gcjhbf)" d="M50.58 108.387V75.871H39.743v32.516h-7.226v-25.29H21.677v25.29h-7.225V72.258H3.612v36.13H0V112h54.194v-3.613H50.58zm-39.741 0H7.226V75.871h3.613v32.516zm18.064 0H25.29V86.71h3.613v21.677zm18.065 0h-3.613V79.484h3.613v28.903z" transform="translate(-817 -690) translate(722 675) translate(95 15)"/>
                    <path fill="url(#o91z7t745a)" d="M61.419 25.29H65.032V28.903H61.419zM38.538 25.29H42.150999999999996V28.903H38.538z" transform="translate(-817 -690) translate(722 675) translate(95 15)"/>
                </g>
            </g>
        </g>
    </g>
</svg>
