<svg xmlns="http://www.w3.org/2000/svg" width="20" height="20" viewBox="0 0 20 20">
    <g fill="none" fill-rule="evenodd">
        <g fill="#AE2E2D" fill-rule="nonzero" stroke="#AE2E2D" stroke-width=".3">
            <path d="M1292.09 648.545c-.9 0-1.635-.736-1.635-1.636 0-.9.736-1.636 1.636-1.636.9 0 1.636.736 1.636 1.636 0 .9-.736 1.636-1.636 1.636zm0-2.454c-.45 0-.817.368-.817.818 0 .45.368.818.818.818.45 0 .818-.368.818-.818 0-.45-.368-.818-.818-.818zm1.965 3.702c.204.123.286.368.143.532-.143.286-.348.552-.614.818-.634.634-1.411 1.002-2.29 1.105h-.042c-.204 0-.388-.164-.409-.368-.02-.225.143-.43.368-.45.696-.062 1.31-.369 1.8-.86.225-.204.389-.409.491-.613.103-.205.348-.266.553-.164zm-3.15-7.793c3.375 0 6.095 2.782 6.095 6.157s-2.761 6.136-6.136 6.136c-.798 0-1.575-.143-2.27-.43l-1.719 1.719c-.061.04-.123.082-.205.102l-.45.082-.081.45c0 .082-.041.143-.103.204l-.572.573c-.041.041-.103.082-.184.102l-.92.225-.226.92c-.02.062-.04.124-.102.185l-1.084 1.084c-.287.307-.696.491-1.146.491h-2.393c-.225 0-.409-.184-.409-.41v-2.392c0-.41.184-.839.49-1.146l5.687-5.707c-.266-.695-.409-1.431-.409-2.209 0-3.375 2.762-6.136 6.137-6.136zm-4.48 12.886l1.432-1.431c-.962-.553-1.76-1.37-2.312-2.332l-5.481 5.543c-.144.164-.246.368-.246.573v1.984h1.964c.143 0 .368-.041.552-.246l1.023-1.022.266-1.064c.04-.164.163-.266.307-.307l1.063-.266.41-.409.102-.573c.04-.163.163-.286.327-.327l.593-.123zm4.48-1.431c2.925 0 5.318-2.394 5.338-5.319 0-2.925-2.393-5.318-5.318-5.318s-5.318 2.393-5.318 5.318c0 .716.143 1.412.409 2.046.02.061.04.102.061.163.839 1.841 2.68 3.11 4.828 3.11z" transform="translate(-1278 -641)"/>
        </g>
    </g>
</svg>
