<svg xmlns="http://www.w3.org/2000/svg" width="32" height="28" viewBox="0 0 32 28">
    <g fill="none" fill-rule="evenodd">
        <g fill="#FFF" fill-rule="nonzero" stroke="#FFF" stroke-width=".3">
            <g>
                <path d="M44.184 40.676h-3.67c-.426 0-.832-.139-1.17-.39l-5.185 4.674c-.428.372-.996.572-1.587.572-.59 0-1.159-.2-1.587-.571L20.98 36.274c-.013.066-.02.134-.02.202v13.757c0 .584.48 1.06 1.067 1.06h21.09c.589 0 1.067-.476 1.067-1.06v-9.557zm1.11 0v9.557c0 1.195-.976 2.167-2.176 2.167H22.027c-1.2 0-2.177-.972-2.177-2.167V36.476c0-1.195.977-2.167 2.177-2.167h16.472v-.984c0-.976.65-1.814 1.548-2.036V29.9c0-2.235 1.92-4.05 4.277-4.05s4.278 1.815 4.278 4.05v1.389c.897.222 1.548 1.06 1.548 2.035v5.257c0 1.154-.902 2.095-2.015 2.095h-2.84zm-6.795-5.26H22.027c-.102 0-.201.014-.296.041l9.984 8.668c.461.4 1.253.4 1.712.002l5.235-4.72c-.107-.258-.163-.538-.163-.826v-3.165zm2.584-4.334h6.482v-1.24c0-1.655-1.451-3.006-3.24-3.006-1.79 0-3.242 1.351-3.242 3.007v1.239zm8.104 7.424v-5.107c0-.671-.523-1.216-1.16-1.216h-7.404c-.639 0-1.161.545-1.161 1.216v5.107c0 .672.522 1.216 1.16 1.216h7.404c.638 0 1.16-.544 1.16-1.216zm-4.457-3.78c.752 0 1.366.583 1.366 1.304v1.729c0 .72-.614 1.303-1.366 1.303-.752 0-1.366-.583-1.366-1.303v-1.73c0-.72.614-1.302 1.366-1.302zm.458 2.975v-1.614c0-.21-.202-.388-.458-.388-.257 0-.458.179-.458.388v1.614c0 .21.201.388.458.388.256 0 .458-.178.458-.388z" transform="translate(-39 -232) translate(20 207)"/>
            </g>
        </g>
    </g>
</svg>
