<svg xmlns="http://www.w3.org/2000/svg" width="22" height="27" viewBox="0 0 22 27">
    <g fill="none" fill-rule="evenodd">
        <g fill-rule="nonzero">
            <g>
                <path fill="#053C6D" d="M16.279 18.479c-.243 0-.44.197-.44.44v1.32H2.2c-.157 0-.302.084-.381.22-.079.136-.079.304 0 .44s.224.22.381.22h13.639V24.2c0 .729-.591 1.32-1.32 1.32H2.2c-.729 0-1.32-.591-1.32-1.32v-22c0-.729.591-1.32 1.32-1.32h12.319c.729 0 1.32.591 1.32 1.32v2.64c0 .243.197.44.44.44s.44-.197.44-.44V2.2c0-1.215-.985-2.2-2.2-2.2H2.2C.985 0 0 .985 0 2.2v22c0 1.215.985 2.2 2.2 2.2h12.319c1.215 0 2.2-.985 2.2-2.2v-5.28c0-.117-.046-.229-.129-.312-.082-.083-.194-.129-.311-.129z" transform="translate(-2088 -25) translate(2088 25)"/>
                <path fill="#AE2E2D" d="M10.12 22.879c.243 0 .44-.197.44-.44s-.197-.44-.44-.44H6.6c-.486 0-.88.394-.88.88v.88c0 .486.394.88.88.88h3.52c.243 0 .44-.197.44-.44s-.197-.44-.44-.44H6.6v-.88h3.52zM16.279 14.08c-.486 0-.88-.394-.88-.88 0-.243-.197-.44-.44-.44s-.44.197-.44.44c.002.801.544 1.5 1.32 1.7v.5c0 .243.197.44.44.44s.44-.197.44-.44v-.5c.847-.23 1.394-1.05 1.283-1.92-.11-.87-.846-1.527-1.723-1.538-.486 0-.88-.394-.88-.88s.394-.88.88-.88.88.394.88.88c0 .243.197.44.44.44s.44-.197.44-.44c-.002-.801-.544-1.5-1.32-1.7v-.5c0-.243-.197-.44-.44-.44s-.44.197-.44.44v.5c-.847.23-1.394 1.05-1.283 1.92.11.87.846 1.527 1.723 1.538.486 0 .88.394.88.88s-.394.88-.88.88z" transform="translate(-2088 -25) translate(2088 25)"/>
                <path fill="#053C6D" d="M16.279 6.16c-1.858 0-3.6.9-4.672 2.418-1.073 1.517-1.342 3.46-.722 5.211.05.152.179.264.336.294.156.03.317-.027.42-.149.103-.122.132-.29.075-.44-.184-.518-.278-1.065-.277-1.615 0-2.309 1.632-4.296 3.897-4.746 2.265-.45 4.532.763 5.415 2.896s.136 4.594-1.784 5.876-4.479 1.03-6.111-.603c-.175-.147-.433-.136-.595.025-.161.162-.172.42-.025.595 1.83 1.833 4.663 2.207 6.906.912 2.244-1.294 3.337-3.935 2.666-6.436-.671-2.501-2.94-4.24-5.529-4.238z" transform="translate(-2088 -25) translate(2088 25)"/>
                <path fill="#AE2E2D" d="M6.16 8.359h3.08c.243 0 .44-.197.44-.44s-.197-.44-.44-.44H6.6v-.44c0-.169-.097-.322-.249-.396-.152-.073-.332-.052-.464.053l-2.2 1.76c-.104.084-.164.21-.164.343 0 .133.06.26.164.343l2.2 1.76c.077.063.173.099.273.1.066.001.13-.014.189-.044.154-.073.252-.23.251-.4v-.44h2.64c.243 0 .44-.197.44-.44s-.197-.44-.44-.44H6.16c-.228 0-.42.173-.44.4l-1.056-.845 1.056-.845c.015.232.208.412.44.411zM6.851 16.235c.058.03.123.045.189.044.1-.001.196-.037.273-.1l2.2-1.76c.104-.084.164-.21.164-.343 0-.133-.06-.26-.164-.343l-2.2-1.76c-.132-.105-.312-.126-.464-.053-.152.074-.249.227-.249.396v.44H3.96c-.243 0-.44.197-.44.44s.197.44.44.44h3.08c.228 0 .42-.173.44-.4l1.056.845-1.056.845c-.02-.227-.212-.4-.44-.4H3.96c-.243 0-.44.197-.44.44s.197.44.44.44H6.6v.44c.003.167.1.317.251.389zM3.52 2.64c0 .243-.197.44-.44.44s-.44-.197-.44-.44.197-.44.44-.44.44.197.44.44zM5.28 2.64c0 .178-.107.338-.272.407-.164.068-.353.03-.48-.096-.125-.126-.163-.315-.095-.48.069-.164.229-.271.407-.271.243 0 .44.197.44.44zM12.32 5.72c0-.243-.197-.44-.44-.44H9.24c-.243 0-.44.197-.44.44s.197.44.44.44h2.64c.243 0 .44-.197.44-.44zM7.92 18.479H11c.243 0 .44-.197.44-.44s-.197-.44-.44-.44H7.92c-.243 0-.44.197-.44.44s.197.44.44.44z" transform="translate(-2088 -25) translate(2088 25)"/>
            </g>
        </g>
    </g>
</svg>
