<svg xmlns="http://www.w3.org/2000/svg" width="18" height="18" viewBox="0 0 18 18">
    <g fill="none" fill-rule="evenodd">
        <g fill="#AE2E2D" fill-rule="nonzero">
            <path d="M1294.364 594.636c-.98-.98-2.147-1.706-3.42-2.145 1.363-.94 2.26-2.51 2.26-4.288 0-2.869-2.335-5.203-5.204-5.203-2.869 0-5.203 2.334-5.203 5.203 0 1.777.896 3.349 2.26 4.288-1.274.44-2.44 1.165-3.42 2.145-1.7 1.7-2.637 3.96-2.637 6.364h1.406c0-4.187 3.407-7.594 7.594-7.594s7.594 3.407 7.594 7.594H1297c0-2.404-.936-4.664-2.636-6.364zM1288 592c-2.094 0-3.797-1.703-3.797-3.797 0-2.093 1.703-3.797 3.797-3.797 2.094 0 3.797 1.704 3.797 3.797 0 2.094-1.703 3.797-3.797 3.797z" transform="translate(-1279 -583)"/>
        </g>
    </g>
</svg>
