<svg xmlns="http://www.w3.org/2000/svg" width="40" height="40" viewBox="0 0 40 40">
    <g fill="none" fill-rule="evenodd">
        <g>
            <g>
                <path fill="#FFF" d="M0 0H40V40H0z" opacity=".098" transform="translate(-279 -19) translate(279 19)"/>
                <g fill-rule="nonzero">
                    <path fill="#AE2E2D" d="M14.064 18.159c.032.039.069.074.11.104 1.586 1.48 3.712 2.387 6.047 2.387 2.306 0 4.408-.884 5.987-2.33.088-.05.161-.12.215-.204 1.647-1.612 2.67-3.857 2.67-6.338 0-4.892-3.98-8.872-8.872-8.872-4.892 0-8.872 3.98-8.872 8.872 0 2.503 1.042 4.766 2.715 6.38zm1.15-.639c.319-1.64 1.755-2.843 3.459-2.843h.923v2.362c0 .345.28.625.625.625s.625-.28.625-.625v-2.362h.924c1.706 0 3.14 1.201 3.459 2.843-1.34 1.17-3.093 1.88-5.008 1.88s-3.667-.71-5.007-1.88zm3.121-6.442h.603c.823 0 1.606-.297 2.217-.827l.952.56v.73c0 1.04-.846 1.886-1.886 1.886s-1.886-.846-1.886-1.886v-.463zm3.772-1.717l-.738-.434c-.263-.155-.6-.097-.796.137-.406.486-1.002.764-1.635.764h-.603V9.23c0-1.04.846-1.886 1.886-1.886s1.886.846 1.886 1.886v.13zm-1.886-5.205c4.203 0 7.623 3.419 7.623 7.622 0 1.769-.606 3.399-1.621 4.694-.59-1.53-1.932-2.658-3.563-2.962.436-.54.697-1.224.697-1.969V9.23c0-1.73-1.406-3.136-3.136-3.136-1.729 0-3.136 1.406-3.136 3.136v2.311c0 .745.262 1.43.697 1.969-1.628.305-2.972 1.434-3.562 2.962-1.015-1.295-1.62-2.925-1.62-4.694 0-4.203 3.418-7.622 7.621-7.622z" transform="translate(-279 -19) translate(279 19) translate(4 4)"/>
                    <path fill="#053C6D" d="M20.129 23.742c3.17 0 6.152-1.235 8.394-3.477S32 15.042 32 11.87c0-3.171-1.235-6.152-3.477-8.395-1.915-1.914-4.449-3.125-7.136-3.41-2.648-.28-5.339.342-7.579 1.753-.292.184-.38.57-.196.862.184.292.57.38.862.196C18.694.218 24.107.828 27.64 4.36c2.006 2.006 3.111 4.674 3.111 7.51 0 2.838-1.105 5.505-3.111 7.511-2.006 2.006-4.673 3.11-7.51 3.11-2.837 0-5.505-1.104-7.51-3.11-3.533-3.532-4.143-8.945-1.484-13.164.184-.293.096-.678-.196-.863-.292-.184-.678-.096-.862.196-1.411 2.24-2.034 4.932-1.753 7.58.17 1.612.676 3.17 1.467 4.572L7.244 20.25.934 26.56C.331 27.162 0 27.962 0 28.813c0 .851.332 1.651.933 2.253.602.602 1.402.933 2.254.933.85 0 1.65-.331 2.252-.933l6.312-6.311 2.54-2.541c1.762.997 3.759 1.528 5.838 1.528zm-15.573 6.44c-.366.366-.852.567-1.37.567-.517 0-1.003-.201-1.369-.567-.755-.755-.755-1.983 0-2.738l5.87-5.87 2.738 2.739-5.87 5.87zm6.753-6.753L8.57 20.691l1.909-1.909c.376.526.795 1.022 1.255 1.483.464.463.96.883 1.48 1.258L11.31 23.43z" transform="translate(-279 -19) translate(279 19) translate(4 4)"/>
                    <path fill="#AE2E2D" d="M12.177 4.543c.16 0 .32-.06.441-.182.245-.245.245-.64 0-.884-.244-.245-.64-.245-.884 0-.244.243-.244.64 0 .883.123.123.283.183.443.183z" transform="translate(-279 -19) translate(279 19) translate(4 4)"/>
                </g>
            </g>
        </g>
    </g>
</svg>
