<svg xmlns="http://www.w3.org/2000/svg" width="32" height="21" viewBox="0 0 32 21">
    <g fill="none" fill-rule="evenodd">
        <g fill="#4A4A4A" stroke="#4A4A4A">
            <g>
                <path fill-rule="nonzero" stroke-width=".2" d="M2.867 17.395h24.266c.503 0 .91-.407.91-.908V.909c0-.501-.407-.909-.91-.909H2.867c-.502 0-.91.408-.91.909v15.578c0 .5.408.908.91.908zM2.737.91c0-.072.058-.13.13-.13h24.266c.072 0 .13.058.13.13v15.578c0 .071-.058.13-.13.13H2.867c-.072 0-.13-.059-.13-.13V.909zm18.056 9.132l-.02-.02.302-.314.026.026.105-.105.07.07-.919.92-.07-.07.506-.507zM30 18.091v.727c0 .192-.157.349-.35.349H.35c-.193 0-.35-.157-.35-.35v-.726h12.32c.062.202.248.351.47.351h4.42c.222 0 .408-.148.47-.351H30zm-11.493-5.84c-.165.165-.36.29-.577.374l-.19.072.072-.19c.083-.217.209-.411.374-.576l.098-.098.321.32-.098.098zm.226-.226l-.32-.32 2.631-2.628.321.32-2.632 2.628zm2.673-2.816l-.157-.162.31-.31.157.162-.31.31z" transform="translate(-2068 -830) translate(2069 831)"/>
                <path stroke-width=".1" d="M19.265 6.168c.048.049.075.114.075.182v6.474c0 .582-.474 1.056-1.057 1.056h-6.356c-.583 0-1.057-.474-1.057-1.056V4.697c0-.582.474-1.055 1.057-1.055h4.7c.07 0 .135.027.183.075l2.455 2.451zm-.44 6.656l.05-6.217h-1.447c-.283 0-.548-.11-.748-.31-.2-.198-.31-.464-.31-.745l.05-1.396h-4.493c-.3 0-.542.243-.542.541v8.127c0 .299.243.542.542.542h6.356c.3 0 .543-.243.543-.542zm-1.94-8.305v1.033c0 .144.056.28.159.383.103.102.239.158.384.158l1.12.086-1.663-1.66zm.036 5.554c.142 0 .257.115.257.257 0 .142-.115.257-.257.257h-3.714c-.142 0-.257-.115-.257-.257 0-.142.115-.257.257-.257h3.714zm0-1.129c.142 0 .257.115.257.257 0 .142-.115.257-.257.257h-3.714c-.142 0-.257-.115-.257-.257 0-.142.115-.257.257-.257h3.714zm0-1.148c.142 0 .257.115.257.257 0 .142-.115.257-.257.257h-3.714c-.142 0-.257-.115-.257-.257 0-.142.115-.257.257-.257h3.714z" transform="translate(-2068 -830) translate(2069 831)"/>
            </g>
        </g>
    </g>
</svg>
