<svg xmlns="http://www.w3.org/2000/svg" width="31" height="24" viewBox="0 0 31 24">
    <g fill="none" fill-rule="evenodd">
        <g>
            <g>
                <g>
                    <g>
                        <path stroke="#FFF" stroke-linecap="round" stroke-linejoin="round" d="M0.088 16.61L4.231 12.434 8.374 16.61" transform="translate(-494 -744) translate(474 329) translate(0 387) translate(20 29) rotate(51 4.231 14.522)"/>
                        <path stroke="#FFF" stroke-linecap="round" stroke-linejoin="round" d="M25.857 13.919S30 14.615 30 18.094c0 3.48-4.143 3.48-4.143 3.48H1.001V0h27.636" transform="translate(-494 -744) translate(474 329) translate(0 387) translate(20 29) matrix(-1 0 0 1 31.001 0)"/>
                        <path fill="#FFF" d="M16.604 5.315v.584c.382.04.71.118.984.237.274.12.512.3.716.54.16.185.285.374.373.568.087.195.131.373.131.536 0 .18-.065.336-.196.467-.13.132-.288.197-.474.197-.35 0-.578-.19-.681-.572-.118-.45-.403-.75-.853-.898v2.249c.443.122.796.234 1.06.335.262.1.497.247.704.438.222.198.393.435.512.71.12.276.18.578.18.906 0 .41-.096.795-.287 1.154-.191.359-.473.651-.844.878-.372.227-.814.363-1.325.406v1.346c0 .212-.02.367-.062.465-.04.097-.131.146-.27.146-.13 0-.22-.04-.271-.12-.052-.079-.078-.201-.078-.367v-1.46c-.418-.046-.784-.145-1.097-.297-.313-.151-.574-.34-.783-.565-.209-.225-.364-.459-.464-.702-.1-.243-.15-.482-.15-.716 0-.173.067-.33.201-.468.134-.139.302-.208.502-.208.16 0 .296.038.407.113.111.076.188.182.23.32.097.295.181.52.253.678.071.156.18.3.324.43.145.13.337.228.577.297v-2.514c-.48-.133-.88-.282-1.201-.446-.322-.164-.583-.397-.783-.7-.2-.302-.3-.692-.3-1.167 0-.62.195-1.128.587-1.525.391-.396.957-.627 1.697-.691v-.573c0-.303.113-.454.338-.454.229 0 .343.147.343.443zm-.681 3.708v-2.07c-.3.09-.535.209-.703.356-.168.148-.252.372-.252.67 0 .285.079.5.236.647.158.145.397.278.719.397zm.681 1.605v2.368c.361-.072.64-.218.837-.438.196-.22.294-.476.294-.768 0-.313-.095-.555-.286-.727-.192-.17-.473-.316-.845-.435z" transform="translate(-494 -744) translate(474 329) translate(0 387) translate(20 29)"/>
                    </g>
                </g>
            </g>
        </g>
    </g>
</svg>
